<?xml version="1.0" standalone="no"?>
<!DOCTYPE svg PUBLIC "-//W3C//DTD SVG 20010904//EN"
 "http://www.w3.org/TR/2001/REC-SVG-20010904/DTD/svg10.dtd">
<svg version="1.0" xmlns="http://www.w3.org/2000/svg"
 width="400.000000pt" height="400.000000pt" viewBox="0 0 400.000000 400.000000"
 preserveAspectRatio="xMidYMid meet">

<g transform="translate(0.000000,400.000000) scale(0.100000,-0.100000)"
fill="#000000" stroke="none">
<path d="M1085 3348 c-52 -18 -96 -59 -121 -112 -23 -50 -24 -56 -24 -353 l0
-303 570 0 570 0 0 308 c0 277 -2 311 -19 348 -22 49 -78 97 -130 113 -50 15
-803 14 -846 -1z"/>
<path d="M315 2551 c-51 -23 -101 -79 -114 -128 -7 -23 -11 -182 -11 -414 0
-425 4 -454 65 -508 61 -53 110 -61 384 -61 135 0 256 3 269 6 l22 6 -2 557
-3 556 -285 2 c-258 2 -289 1 -325 -16z"/>
<path d="M2095 2560 c-4 -6 -5 -77 -4 -158 l3 -147 -35 0 c-31 0 -34 -3 -37
-31 -4 -39 20 -63 43 -44 9 7 18 10 21 7 3 -3 6 -171 7 -374 l2 -368 775 4
c831 4 813 2 869 54 13 12 32 40 42 62 17 37 19 72 19 438 0 433 -1 440 -58
501 -15 16 -45 37 -67 47 -38 18 -82 19 -807 19 -519 0 -769 -3 -773 -10z
m113 -265 c6 -14 16 -25 22 -25 5 0 10 11 10 25 0 15 6 25 14 25 20 0 24 -17
18 -87 -5 -72 -21 -82 -49 -30 l-18 32 -3 -32 c-2 -25 -8 -33 -23 -33 -17 0
-19 7 -19 68 0 38 3 72 7 75 13 14 30 6 41 -18z m292 5 c0 -11 -7 -20 -15 -20
-8 0 -15 9 -15 20 0 11 7 20 15 20 8 0 15 -9 15 -20z m340 -56 c0 -66 -2 -75
-17 -72 -14 3 -19 15 -21 62 -4 68 1 86 23 86 12 0 15 -14 15 -76z m150 2 c0
-58 -3 -75 -16 -80 -30 -11 -44 -6 -59 24 -12 23 -13 34 -3 55 6 14 17 25 24
25 8 0 16 11 20 25 3 14 12 25 20 25 11 0 14 -17 14 -74z m-635 10 c9 -14 15
-39 13 -58 -3 -29 -6 -33 -32 -33 -40 0 -59 31 -31 51 17 12 17 16 6 24 -12 7
-12 11 -2 24 18 22 28 20 46 -8z m93 1 c2 -10 -3 -17 -12 -17 -20 0 -21 -36
-1 -44 21 -8 19 -36 -3 -36 -28 0 -42 21 -42 62 0 50 49 80 58 35z m145 -7
c25 -29 26 -29 29 -7 2 17 11 23 35 25 28 3 32 0 38 -27 8 -37 -2 -74 -18 -68
-7 2 -14 17 -16 33 l-4 29 -6 -29 c-6 -31 -31 -48 -31 -22 0 22 -17 20 -30 -4
-21 -40 -70 -14 -70 37 0 21 27 63 40 63 4 0 20 -13 33 -30z m175 17 c6 -7 13
-33 14 -58 3 -41 1 -44 -23 -47 -38 -4 -56 21 -35 52 11 18 12 26 3 29 -9 3
-9 8 2 20 16 20 25 21 39 4z m310 -16 c5 -9 6 -32 3 -51 -8 -48 -43 -54 -65
-11 -20 38 -20 43 4 69 22 23 46 20 58 -7z m-573 -32 c0 -34 -4 -44 -17 -47
-15 -3 -18 4 -18 41 0 24 3 47 7 51 16 16 28 -4 28 -45z m-437 -1 c-2 -13 -10
-23 -18 -23 -8 0 -16 10 -18 23 -3 17 2 22 18 22 16 0 21 -5 18 -22z m191
-209 c13 -12 21 -30 19 -42 -3 -22 -13 -24 -55 -11 -34 10 -30 -29 5 -56 39
-31 51 -58 52 -113 0 -38 -5 -53 -25 -72 -44 -45 -105 -21 -105 41 0 37 6 41
35 20 20 -15 45 -11 45 6 0 6 -18 30 -40 54 -39 43 -45 60 -41 119 3 37 37 75
66 75 12 0 31 -9 44 -21z m396 -24 c0 -39 -31 -48 -41 -11 -7 30 2 48 24 44
11 -2 17 -13 17 -33z m467 18 c7 -30 -4 -54 -21 -51 -10 2 -17 15 -19 36 -3
26 0 32 17 32 11 0 21 -8 23 -17z m-374 -61 c2 -12 10 -22 18 -22 22 0 18 -47
-5 -53 -16 -4 -19 -12 -16 -48 2 -24 4 -47 4 -51 1 -5 8 -8 16 -8 10 0 15 -10
15 -29 0 -40 -36 -53 -60 -23 -25 31 -34 186 -13 230 17 36 36 38 41 4z m-354
-27 c15 -11 21 -34 27 -107 9 -105 5 -115 -54 -112 -50 3 -57 10 -57 59 0 38
5 48 30 67 17 12 30 28 30 35 0 15 -26 18 -35 3 -11 -18 -25 -10 -25 14 0 24
32 56 55 56 5 0 19 -7 29 -15z m171 -9 c12 -18 15 -45 13 -112 -3 -81 -5 -89
-23 -89 -18 0 -20 8 -23 78 -3 73 -12 96 -26 61 -3 -9 -6 -45 -6 -80 0 -57 -2
-64 -20 -64 -19 0 -20 7 -20 111 l0 111 24 -4 c14 -3 31 -1 38 3 20 13 26 11
43 -15z m336 -6 c13 -18 18 -48 21 -110 l3 -85 -48 -6 c-53 -6 -64 1 -73 50
-6 27 -2 36 31 67 26 24 35 38 27 46 -7 7 -16 6 -31 -1 -19 -10 -21 -9 -21 13
0 26 35 58 59 54 8 -2 22 -14 32 -28z m345 9 c14 -15 19 -37 20 -78 1 -31 5
-69 9 -84 10 -36 -2 -48 -54 -51 -33 -3 -45 1 -56 18 -25 34 -18 66 21 103 28
26 34 37 25 46 -8 8 -14 8 -23 -1 -19 -19 -28 -14 -28 12 0 24 32 56 56 56 6
0 19 -9 30 -21z m-591 -99 c0 -98 -1 -105 -20 -105 -18 0 -20 8 -23 94 -3 107
1 124 25 119 16 -3 18 -16 18 -108z m401 98 c10 -16 -6 -58 -21 -58 -22 0 -35
-34 -35 -94 0 -49 -3 -56 -19 -56 -17 0 -20 9 -25 63 -6 73 -6 104 0 134 3 18
10 21 49 21 25 -1 48 -5 51 -10z m64 -98 c0 -103 -1 -110 -20 -110 -19 0 -20
7 -20 110 0 103 1 110 20 110 19 0 20 -7 20 -110z"/>
<path d="M2940 2220 c0 -5 5 -10 10 -10 6 0 10 5 10 10 0 6 -4 10 -10 10 -5 0
-10 -4 -10 -10z"/>
<path d="M2550 2220 c0 -5 5 -10 10 -10 6 0 10 5 10 10 0 6 -4 10 -10 10 -5 0
-10 -4 -10 -10z"/>
<path d="M2355 1777 c-4 -10 -5 -21 -1 -24 10 -10 18 4 13 24 -4 17 -4 17 -12
0z"/>
<path d="M2850 1765 c0 -8 5 -15 10 -15 6 0 10 7 10 15 0 8 -4 15 -10 15 -5 0
-10 -7 -10 -15z"/>
<path d="M3200 1765 c0 -8 5 -15 10 -15 6 0 10 7 10 15 0 8 -4 15 -10 15 -5 0
-10 -7 -10 -15z"/>
<path d="M1420 2245 c0 -37 4 -65 10 -65 6 0 10 28 10 65 0 37 -4 65 -10 65
-6 0 -10 -28 -10 -65z"/>
<path d="M1656 2264 c-4 -10 -2 -22 3 -27 7 -7 13 -5 17 7 4 10 2 22 -3 27 -7
7 -13 5 -17 -7z"/>
<path d="M1787 2274 c-4 -4 -7 -17 -7 -28 0 -19 1 -19 17 -3 12 11 14 20 7 27
-6 6 -13 7 -17 4z"/>
<path d="M1954 2266 c-8 -22 3 -33 18 -18 9 9 9 15 0 24 -9 9 -13 7 -18 -6z"/>
<path d="M1486 2251 c-4 -5 4 -11 16 -13 16 -2 23 -10 23 -25 0 -12 4 -26 9
-30 4 -4 6 10 4 32 -2 32 -7 41 -25 43 -11 2 -24 -1 -27 -7z"/>
<path d="M1585 2233 c5 -16 8 -36 9 -45 0 -16 2 -16 15 -3 12 12 13 18 3 27
-7 7 -12 20 -12 30 0 10 -5 18 -11 18 -7 0 -9 -9 -4 -27z"/>
<path d="M1720 2239 c0 -5 5 -7 10 -4 6 3 10 8 10 11 0 2 -4 4 -10 4 -5 0 -10
-5 -10 -11z"/>
<path d="M1782 2200 c1 -13 9 -25 16 -28 17 -5 15 23 -4 39 -14 11 -15 10 -12
-11z"/>
<path d="M1660 2196 c0 -8 5 -18 10 -21 6 -3 10 1 10 9 0 8 -4 18 -10 21 -5 3
-10 -1 -10 -9z"/>
<path d="M1720 2200 c0 -5 5 -10 10 -10 6 0 10 5 10 10 0 6 -4 10 -10 10 -5 0
-10 -4 -10 -10z"/>
<path d="M1876 2201 c-25 -5 -27 -8 -14 -19 18 -15 48 -6 48 14 0 8 -1 13 -2
13 -2 -1 -16 -4 -32 -8z"/>
<path d="M1950 2203 c0 -14 19 -38 25 -32 8 8 -5 39 -16 39 -5 0 -9 -3 -9 -7z"/>
<path d="M1138 2001 c-64 -51 -63 -232 1 -282 17 -14 33 -18 51 -14 40 10 51
33 48 100 -3 54 -5 60 -26 63 -29 4 -39 -23 -17 -48 21 -24 16 -54 -11 -58
-36 -5 -59 33 -59 98 0 77 22 105 77 96 33 -5 38 -4 38 13 0 22 -35 51 -61 51
-9 0 -27 -9 -41 -19z"/>
<path d="M1817 2001 c-4 -17 -3 -21 5 -13 5 5 8 16 6 23 -3 8 -7 3 -11 -10z"/>
<path d="M1680 1985 c0 -17 5 -25 13 -22 6 2 12 12 12 22 0 10 -6 20 -12 23
-8 2 -13 -6 -13 -23z"/>
<path d="M1568 1917 c-10 -21 -13 -39 -7 -48 5 -8 9 -42 9 -76 0 -65 17 -97
45 -87 19 8 20 44 1 44 -15 0 -26 30 -26 77 0 23 8 37 28 52 26 20 26 21 6 27
-12 3 -26 15 -31 26 -8 18 -10 17 -25 -15z"/>
<path d="M1315 1896 c-21 -21 -25 -35 -25 -81 0 -62 10 -89 40 -105 24 -13 60
3 60 26 0 11 -7 13 -26 8 -28 -7 -44 7 -44 39 0 12 8 17 28 17 47 0 55 12 42
58 -15 57 -42 71 -75 38z m45 -31 c15 -18 5 -35 -21 -35 -12 0 -19 7 -19 18 0
33 20 42 40 17z"/>
<path d="M1456 1904 c-24 -24 -20 -75 9 -108 29 -34 28 -50 -3 -54 -25 -4 -29
-27 -6 -36 21 -8 51 9 59 34 9 28 -3 60 -32 92 -27 28 -24 48 8 48 22 0 24 11
7 28 -16 16 -23 15 -42 -4z"/>
<path d="M1787 1909 c-22 -13 -40 -83 -32 -129 6 -33 36 -80 51 -80 32 0 64
55 64 110 0 68 -44 120 -83 99z m47 -55 c3 -9 6 -28 6 -44 0 -41 -10 -60 -30
-60 -20 0 -30 19 -30 60 0 41 10 60 30 60 10 0 21 -7 24 -16z"/>
<path d="M1680 1810 c0 -77 3 -101 13 -97 8 3 12 31 12 97 0 66 -4 95 -12 98
-10 3 -13 -21 -13 -98z"/>
<path d="M1916 1900 c-1 -3 -2 -45 -2 -94 1 -62 5 -91 14 -93 9 -4 12 13 12
60 0 78 6 97 31 97 17 0 19 -8 19 -80 0 -64 3 -80 15 -80 12 0 15 15 15 74 0
41 -4 86 -10 100 -8 22 -15 25 -50 23 -23 -1 -43 -4 -44 -7z"/>
<path d="M940 1136 c0 -330 4 -353 68 -419 64 -65 86 -68 523 -65 l384 3 50
25 c32 16 61 41 80 68 l30 44 3 319 3 319 -571 0 -570 0 0 -294z"/>
</g>
</svg>
