<?xml version="1.0" encoding="UTF-8"?>
<!DOCTYPE svg PUBLIC "-//W3C//DTD SVG 1.1//EN" "http://www.w3.org/Graphics/SVG/1.1/DTD/svg11.dtd">
<svg xmlns="http://www.w3.org/2000/svg" version="1.1" width="220px" height="220px" style="shape-rendering:geometricPrecision; text-rendering:geometricPrecision; image-rendering:optimizeQuality; fill-rule:evenodd; clip-rule:evenodd" xmlns:xlink="http://www.w3.org/1999/xlink">
<g><path style="opacity:0.027" fill="#6296f9" d="M 59.5,34.5 C 74.6611,33.3388 89.9945,33.1721 105.5,34C 106.737,34.2321 107.737,34.7321 108.5,35.5C 92.1949,34.5599 75.8616,34.2266 59.5,34.5 Z"/></g>
<g><path style="opacity:0.999" fill="#0354f6" d="M 59.5,34.5 C 75.8616,34.2266 92.1949,34.5599 108.5,35.5C 111.107,36.7122 112.774,38.7122 113.5,41.5C 113.5,53.1667 113.5,64.8333 113.5,76.5C 92.8333,76.5 72.1667,76.5 51.5,76.5C 51.5,64.8333 51.5,53.1667 51.5,41.5C 52.9382,37.7264 55.6049,35.3931 59.5,34.5 Z"/></g>
<g><path style="opacity:0.997" fill="#6582fa" d="M 51.5,41.5 C 51.5,53.1667 51.5,64.8333 51.5,76.5C 72.1667,76.5 92.8333,76.5 113.5,76.5C 113.5,64.8333 113.5,53.1667 113.5,41.5C 114.268,42.2625 114.768,43.2625 115,44.5C 115.5,55.1615 115.667,65.8281 115.5,76.5C 117.099,76.2322 118.432,76.5655 119.5,77.5C 117.901,77.2322 116.568,77.5655 115.5,78.5C 115.167,78.5 114.833,78.5 114.5,78.5C 93.3399,77.5027 72.0065,77.1694 50.5,77.5C 49.9055,71.8674 49.5722,66.2008 49.5,60.5C 49.2839,53.9201 49.9506,47.5868 51.5,41.5 Z"/></g>
<g><path style="opacity:0.354" fill="#3f69f8" d="M 207.5,83.5 C 205.075,80.9542 202.075,79.4542 198.5,79C 170.835,78.5 143.169,78.3334 115.5,78.5C 116.568,77.5655 117.901,77.2322 119.5,77.5C 121.126,77.0617 122.793,76.7284 124.5,76.5C 150.15,77.3061 175.817,77.8061 201.5,78C 204.641,78.7146 206.641,80.5479 207.5,83.5 Z"/></g>
<g><path style="opacity:0.999" fill="#fafbfe" d="M 113.5,94.5 C 112.5,94.5 111.5,94.5 110.5,94.5C 110.5,96.5 110.5,98.5 110.5,100.5C 111.5,100.5 112.5,100.5 113.5,100.5C 113.5,113.5 113.5,126.5 113.5,139.5C 92.8333,139.5 72.1667,139.5 51.5,139.5C 51.5,119.167 51.5,98.8333 51.5,78.5C 72.1667,78.5 92.8333,78.5 113.5,78.5C 113.5,83.8333 113.5,89.1667 113.5,94.5 Z"/></g>
<g><path style="opacity:1" fill="#a2befb" d="M 50.5,77.5 C 72.0065,77.1694 93.3399,77.5027 114.5,78.5C 114.5,83.8333 114.5,89.1667 114.5,94.5C 114.167,94.5 113.833,94.5 113.5,94.5C 113.5,89.1667 113.5,83.8333 113.5,78.5C 92.8333,78.5 72.1667,78.5 51.5,78.5C 51.5,98.8333 51.5,119.167 51.5,139.5C 51.5,139.833 51.5,140.167 51.5,140.5C 51.1667,140.5 50.8333,140.5 50.5,140.5C 50.5,119.5 50.5,98.5 50.5,77.5 Z"/></g>
<g><path style="opacity:0.999" fill="#1256f6" d="M 16.5,78.5 C 27.5,78.5 38.5,78.5 49.5,78.5C 49.5,98.8333 49.5,119.167 49.5,139.5C 38.5,139.5 27.5,139.5 16.5,139.5C 13.3252,139.16 11.1585,137.493 10,134.5C 8.05038,117.816 8.05038,101.149 10,84.5C 11.4055,81.5914 13.5722,79.5914 16.5,78.5 Z"/></g>
<g><path style="opacity:0.999" fill="#5975f9" d="M 50.5,77.5 C 50.5,98.5 50.5,119.5 50.5,140.5C 40.1667,140.5 29.8333,140.5 19.5,140.5C 18.209,140.737 17.209,140.404 16.5,139.5C 27.5,139.5 38.5,139.5 49.5,139.5C 49.5,119.167 49.5,98.8333 49.5,78.5C 38.5,78.5 27.5,78.5 16.5,78.5C 17.2625,77.7321 18.2625,77.2321 19.5,77C 29.88,76.2148 40.2133,76.3815 50.5,77.5 Z"/></g>
<g><path style="opacity:0.998" fill="#0e56f6" d="M 114.5,78.5 C 114.833,78.5 115.167,78.5 115.5,78.5C 143.169,78.3334 170.835,78.5 198.5,79C 202.075,79.4542 205.075,80.9542 207.5,83.5C 208.222,83.9175 208.722,84.5842 209,85.5C 209.667,101.167 209.667,116.833 209,132.5C 207.365,137.638 203.865,140.304 198.5,140.5C 170.5,140.5 142.5,140.5 114.5,140.5C 114.5,127.167 114.5,113.833 114.5,100.5C 113.167,98.5 113.167,96.5 114.5,94.5C 114.5,89.1667 114.5,83.8333 114.5,78.5 Z"/></g>
<g><path style="opacity:0.996" fill="#7e9dfa" d="M 79.5,95.5 C 79.762,96.9778 79.4287,98.3112 78.5,99.5C 77.5258,97.2573 77.1924,94.924 77.5,92.5C 77.56,91.9569 77.8933,91.6236 78.5,91.5C 79.4287,92.6888 79.762,94.0222 79.5,95.5 Z"/></g>
<g><path style="opacity:0.998" fill="#a6bcfc" d="M 97.5,93.5 C 97.5,95.8333 97.5,98.1667 97.5,100.5C 94.4299,100.632 91.4299,100.299 88.5,99.5C 88.5,97.8333 88.5,96.1667 88.5,94.5C 90.0861,93.5868 91.5861,93.5868 93,94.5C 93.4828,93.552 93.6495,92.552 93.5,91.5C 95.1993,91.5271 96.5326,92.1938 97.5,93.5 Z"/></g>
<g><path style="opacity:1" fill="#aac1fb" d="M 163.5,99.5 C 160.006,100.835 158.84,99.5015 160,95.5C 160.383,94.944 160.883,94.6107 161.5,94.5C 162.222,94.0825 162.722,93.4158 163,92.5C 163.497,94.8098 163.663,97.1432 163.5,99.5 Z"/></g>
<g><path style="opacity:1" fill="#b1c6fc" d="M 122.5,91.5 C 123.748,92.3339 124.415,93.6672 124.5,95.5C 124.59,99.5394 123.423,100.206 121,97.5C 120.751,98.624 120.251,99.624 119.5,100.5C 118.167,97.8333 118.167,95.1667 119.5,92.5C 121.738,95.4327 122.738,95.0993 122.5,91.5 Z"/></g>
<g><path style="opacity:1" fill="#9fb9fb" d="M 131.5,94.5 C 132.376,94.3691 133.043,94.7025 133.5,95.5C 132.943,97.2352 132.61,98.9018 132.5,100.5C 130.261,98.8669 129.928,96.8669 131.5,94.5 Z"/></g>
<g><path style="opacity:0.996" fill="#83a6fa" d="M 153.5,92.5 C 154.725,93.1522 155.392,94.3189 155.5,96C 155.167,97.1667 154.833,98.3333 154.5,99.5C 153.526,97.2573 153.192,94.924 153.5,92.5 Z"/></g>
<g><path style="opacity:1" fill="#5384f9" d="M 165.5,95.5 C 165.5,96.8333 165.5,98.1667 165.5,99.5C 164.833,99.5 164.167,99.5 163.5,99.5C 163.663,97.1432 163.497,94.8098 163,92.5C 162.722,93.4158 162.222,94.0825 161.5,94.5C 161.5,93.5 161.5,92.5 161.5,91.5C 162.5,91.5 163.5,91.5 164.5,91.5C 164.232,93.099 164.566,94.4324 165.5,95.5 Z"/></g>
<g><path style="opacity:1" fill="#7097f9" d="M 100.5,95.5 C 101.75,95.5774 102.583,96.244 103,97.5C 103.333,96.8333 103.667,96.1667 104,95.5C 104.49,96.7932 104.657,98.1266 104.5,99.5C 101.172,100.851 99.8386,99.5172 100.5,95.5 Z"/></g>
<g><path style="opacity:1" fill="#abc3fb" d="M 100.5,95.5 C 102.265,94.5386 104.265,94.2053 106.5,94.5C 106.5,96.1667 106.5,97.8333 106.5,99.5C 105.833,99.5 105.167,99.5 104.5,99.5C 104.657,98.1266 104.49,96.7932 104,95.5C 103.667,96.1667 103.333,96.8333 103,97.5C 102.583,96.244 101.75,95.5774 100.5,95.5 Z"/></g>
<g><path style="opacity:1" fill="#6a92f9" d="M 113.5,94.5 C 113.833,94.5 114.167,94.5 114.5,94.5C 113.167,96.5 113.167,98.5 114.5,100.5C 114.167,100.5 113.833,100.5 113.5,100.5C 112.5,100.5 111.5,100.5 110.5,100.5C 110.5,98.5 110.5,96.5 110.5,94.5C 111.5,94.5 112.5,94.5 113.5,94.5 Z"/></g>
<g><path style="opacity:1" fill="#a3bcfb" d="M 149.5,94.5 C 150.5,94.5 151.5,94.5 152.5,94.5C 152.5,96.5 152.5,98.5 152.5,100.5C 151.5,100.5 150.5,100.5 149.5,100.5C 149.5,98.5 149.5,96.5 149.5,94.5 Z"/></g>
<g><path style="opacity:1" fill="#749bf9" d="M 84.5,95.5 C 84.5,96.8333 84.5,98.1667 84.5,99.5C 83.1667,99.5 81.8333,99.5 80.5,99.5C 80.5,98.1667 80.5,96.8333 80.5,95.5C 81.8333,94.1667 83.1667,94.1667 84.5,95.5 Z"/></g>
<g><path style="opacity:1" fill="#668cf9" d="M 97.5,93.5 C 98.4972,93.4701 99.1639,93.9701 99.5,95C 98.3047,96.5325 98.3047,98.0325 99.5,99.5C 99.0431,100.298 98.3764,100.631 97.5,100.5C 97.5,98.1667 97.5,95.8333 97.5,93.5 Z"/></g>
<g><path style="opacity:1" fill="#7c9ffa" d="M 149.5,94.5 C 149.5,96.5 149.5,98.5 149.5,100.5C 144.964,99.3006 140.631,99.3006 136.5,100.5C 135.167,97.8333 135.167,95.1667 136.5,92.5C 137.251,93.376 137.751,94.376 138,95.5C 139.938,94.1398 141.604,94.4732 143,96.5C 143.519,95.4844 144.353,94.8178 145.5,94.5C 146.98,95.4324 148.313,95.4324 149.5,94.5 Z"/></g>
<g><path style="opacity:1" fill="#6d93f9" d="M 88.5,94.5 C 88.5,96.1667 88.5,97.8333 88.5,99.5C 88.5,99.8333 88.5,100.167 88.5,100.5C 86.5923,99.5144 85.5923,97.8477 85.5,95.5C 86.209,94.596 87.209,94.2627 88.5,94.5 Z"/></g>
<g><path style="opacity:1" fill="#618af9" d="M 106.5,94.5 C 107.693,94.9704 108.36,95.9704 108.5,97.5C 108.167,98.5 107.833,99.5 107.5,100.5C 106.893,100.376 106.56,100.043 106.5,99.5C 106.5,97.8333 106.5,96.1667 106.5,94.5 Z"/></g>
<g><path style="opacity:1" fill="#94b1fb" d="M 126.5,94.5 C 127.5,94.5 128.5,94.5 129.5,94.5C 129.5,96.5 129.5,98.5 129.5,100.5C 128.167,100.5 126.833,100.5 125.5,100.5C 125.833,98.5 126.167,96.5 126.5,94.5 Z"/></g>
<g><path style="opacity:1" fill="#b8cdfc" d="M 77.5,92.5 C 77.1924,94.924 77.5258,97.2573 78.5,99.5C 79.4287,98.3112 79.762,96.9778 79.5,95.5C 79.8333,95.5 80.1667,95.5 80.5,95.5C 80.5,96.8333 80.5,98.1667 80.5,99.5C 81.8333,99.5 83.1667,99.5 84.5,99.5C 84.5,98.1667 84.5,96.8333 84.5,95.5C 84.8333,95.5 85.1667,95.5 85.5,95.5C 85.5923,97.8477 86.5923,99.5144 88.5,100.5C 84.7227,100.772 80.7227,100.772 76.5,100.5C 76.1936,97.6146 76.5269,94.9479 77.5,92.5 Z"/></g>
<g><path style="opacity:1" fill="#91b0fb" d="M 165.5,99.5 C 165.5,98.1667 165.5,96.8333 165.5,95.5C 166.542,94.2089 167.708,94.2089 169,95.5C 168.981,97.1075 168.815,98.7741 168.5,100.5C 167.209,100.737 166.209,100.404 165.5,99.5 Z"/></g>
<g><path style="opacity:0.996" fill="#b7ccfc" d="M 145.5,108.5 C 145.715,110.179 145.048,111.179 143.5,111.5C 143.285,109.821 143.952,108.821 145.5,108.5 Z"/></g>
<g><path style="opacity:1" fill="#4d79f8" d="M 93.5,108.5 C 93.7148,110.179 93.0481,111.179 91.5,111.5C 91.2852,109.821 91.9519,108.821 93.5,108.5 Z"/></g>
<g><path style="opacity:0.996" fill="#9bb5fb" d="M 168.5,108.5 C 169.5,108.5 170.5,108.5 171.5,108.5C 171.5,109.5 171.5,110.5 171.5,111.5C 170.5,111.5 169.5,111.5 168.5,111.5C 168.5,110.5 168.5,109.5 168.5,108.5 Z"/></g>
<g><path style="opacity:1" fill="#abc0fc" d="M 100.5,114.5 C 99.5,114.5 98.5,114.5 97.5,114.5C 97.0508,112.023 97.7175,110.023 99.5,108.5C 99.813,110.52 100.146,112.52 100.5,114.5 Z"/></g>
<g><path style="opacity:0.996" fill="#d7e2fd" d="M 119.5,108.5 C 121.948,108.01 123.615,108.843 124.5,111C 123.167,111.667 121.833,112.333 120.5,113C 121.27,114.775 122.437,116.275 124,117.5C 124.667,119.833 124.667,122.167 124,124.5C 121.136,127.326 118.969,126.826 117.5,123C 117.833,122.5 118.167,122 118.5,121.5C 119.891,122.645 121.224,122.645 122.5,121.5C 120.808,119.641 119.308,117.641 118,115.5C 117.167,112.829 117.667,110.496 119.5,108.5 Z"/></g>
<g><path style="opacity:1" fill="#cbd8fd" d="M 148.5,123.5 C 148.5,120.167 148.5,116.833 148.5,113.5C 148.369,112.624 148.702,111.957 149.5,111.5C 150.681,112.515 151.681,113.681 152.5,115C 150.312,117.984 149.979,121.15 151.5,124.5C 149.948,125.798 148.948,125.465 148.5,123.5 Z"/></g>
<g><path style="opacity:1" fill="#c6d4fc" d="M 155.5,113.5 C 156.822,113.33 157.989,113.663 159,114.5C 159.246,117.89 159.746,121.223 160.5,124.5C 158.604,125.466 156.604,125.799 154.5,125.5C 154.135,122.254 155.135,119.588 157.5,117.5C 154.942,116.782 154.275,115.449 155.5,113.5 Z"/></g>
<g><path style="opacity:1" fill="#3466f7" d="M 76.5,116.5 C 76.5,117.833 76.5,119.167 76.5,120.5C 75.1667,120.5 73.8333,120.5 72.5,120.5C 72.5,121.5 72.5,122.5 72.5,123.5C 74.099,123.232 75.4324,123.566 76.5,124.5C 71.8673,126.662 69.8673,125.162 70.5,120C 69.5987,115.567 71.2654,113.9 75.5,115C 76.056,115.383 76.3893,115.883 76.5,116.5 Z"/></g>
<g><path style="opacity:1" fill="#7fa3fa" d="M 140.5,114.5 C 138.833,114.5 137.167,114.5 135.5,114.5C 135.185,118.371 135.518,122.038 136.5,125.5C 136.44,126.043 136.107,126.376 135.5,126.5C 134.508,122.217 134.174,117.884 134.5,113.5C 136.735,113.205 138.735,113.539 140.5,114.5 Z"/></g>
<g><path style="opacity:0.998" fill="#9db7fb" d="M 59.5,113.5 C 59.3316,117.658 59.9983,121.658 61.5,125.5C 60.0337,124.653 59.2004,123.32 59,121.5C 58.1993,118.633 58.3659,115.966 59.5,113.5 Z"/></g>
<g><path style="opacity:1" fill="#d1ddfd" d="M 66.5,108.5 C 68.256,109.552 68.9227,111.219 68.5,113.5C 62.4261,113.674 62.0928,114.674 67.5,116.5C 66.5,116.5 65.5,116.5 64.5,116.5C 64.8333,118.5 65.1667,120.5 65.5,122.5C 63.8762,122.64 62.7096,121.973 62,120.5C 59.9629,114.813 61.7962,112.146 67.5,112.5C 67.5674,111.041 67.2341,109.708 66.5,108.5 Z"/></g>
<g><path style="opacity:1" fill="#b3c9fc" d="M 72.5,116.5 C 74.337,116.639 74.6704,117.306 73.5,118.5C 72.7025,118.043 72.3691,117.376 72.5,116.5 Z"/></g>
<g><path style="opacity:1" fill="#d0dbfd" d="M 82.5,114.5 C 83.5,114.5 84.5,114.5 85.5,114.5C 85.5,117.833 85.5,121.167 85.5,124.5C 84.1067,125.26 82.6067,125.926 81,126.5C 79.9302,126.472 79.0968,126.139 78.5,125.5C 79.8333,125.5 81.1667,125.5 82.5,125.5C 82.8956,122.518 82.2289,119.851 80.5,117.5C 81.6119,116.735 82.2786,115.735 82.5,114.5 Z"/></g>
<g><path style="opacity:1" fill="#376df7" d="M 91.5,114.5 C 93.4136,117.684 94.0803,121.351 93.5,125.5C 91.5864,122.316 90.9197,118.649 91.5,114.5 Z"/></g>
<g><path style="opacity:0.996" fill="#4267f8" d="M 97.5,114.5 C 98.5,114.5 99.5,114.5 100.5,114.5C 101.117,114.611 101.617,114.944 102,115.5C 102.497,118.146 102.664,120.813 102.5,123.5C 100.751,125.531 98.7508,125.865 96.5,124.5C 95.6618,124.158 95.3284,123.492 95.5,122.5C 95.5,120.833 95.5,119.167 95.5,117.5C 95.427,115.973 96.0937,114.973 97.5,114.5 Z"/></g>
<g><path style="opacity:1" fill="#4a7af8" d="M 145.5,108.5 C 146.309,110.292 146.809,112.292 147,114.5C 147.383,113.944 147.883,113.611 148.5,113.5C 148.5,116.833 148.5,120.167 148.5,123.5C 147.686,121.369 147.186,119.036 147,116.5C 146.819,119.695 146.319,122.695 145.5,125.5C 146.08,121.351 145.414,117.684 143.5,114.5C 143.918,113.778 144.584,113.278 145.5,113C 144.584,112.722 143.918,112.222 143.5,111.5C 145.048,111.179 145.715,110.179 145.5,108.5 Z"/></g>
<g><path style="opacity:1" fill="#9bb7fb" d="M 67.5,116.5 C 68.6378,119.304 68.8045,122.304 68,125.5C 66.0565,126.807 64.2232,126.807 62.5,125.5C 64.1439,125.714 65.6439,125.38 67,124.5C 67.4974,121.854 67.6641,119.187 67.5,116.5 Z"/></g>
<g><path style="opacity:0.999" fill="#c1d3fc" d="M 93.5,108.5 C 94.1667,111.5 94.8333,114.5 95.5,117.5C 95.5,119.167 95.5,120.833 95.5,122.5C 94.8333,123.5 94.1667,124.5 93.5,125.5C 94.0803,121.351 93.4136,117.684 91.5,114.5C 91.9175,113.778 92.5842,113.278 93.5,113C 92.5842,112.722 91.9175,112.222 91.5,111.5C 93.0481,111.179 93.7148,110.179 93.5,108.5 Z"/></g>
<g><path style="opacity:0.996" fill="#406df7" d="M 104.5,113.5 C 106.467,113.261 108.301,113.594 110,114.5C 110.825,118.211 110.659,121.878 109.5,125.5C 108.167,113.5 106.833,113.5 105.5,125.5C 104.509,121.555 104.176,117.555 104.5,113.5 Z"/></g>
<g><path style="opacity:0.998" fill="#ccdbfc" d="M 162.5,114.5 C 164.167,114.5 165.833,114.5 167.5,114.5C 165.254,117.664 163.92,121.33 163.5,125.5C 162.511,121.893 162.177,118.226 162.5,114.5 Z"/></g>
<g><path style="opacity:1" fill="#a2bafb" d="M 132.5,123.5 C 131.683,121.031 131.183,118.365 131,115.5C 129.887,118.274 129.387,120.941 129.5,123.5C 128.824,122.398 128.158,121.398 127.5,120.5C 128.141,119.518 128.807,118.518 129.5,117.5C 129.062,116.494 128.396,116.494 127.5,117.5C 126.27,113.917 127.604,112.751 131.5,114C 132.451,117.057 132.784,120.223 132.5,123.5 Z"/></g>
<g><path style="opacity:0.996" fill="#d0dcfd" d="M 78.5,115.5 C 78.1459,118.421 79.1459,120.754 81.5,122.5C 80.0065,123.141 79.0065,124.141 78.5,125.5C 77.8333,125.167 77.1667,124.833 76.5,124.5C 75.4324,123.566 74.099,123.232 72.5,123.5C 72.5,122.5 72.5,121.5 72.5,120.5C 73.8333,120.5 75.1667,120.5 76.5,120.5C 76.5,119.167 76.5,117.833 76.5,116.5C 77.1667,116.167 77.8333,115.833 78.5,115.5 Z"/></g>
<g><path style="opacity:1" fill="#aec2fc" d="M 98.5,116.5 C 99.7251,117.152 100.392,118.319 100.5,120C 99.7095,124.448 98.7095,124.448 97.5,120C 97.6483,118.744 97.9816,117.577 98.5,116.5 Z"/></g>
<g><path style="opacity:1" fill="#d1ddfd" d="M 140.5,114.5 C 142.176,118.562 141.842,122.229 139.5,125.5C 139.817,122.428 139.484,119.428 138.5,116.5C 137.893,116.624 137.56,116.957 137.5,117.5C 136.527,119.948 136.194,122.615 136.5,125.5C 135.518,122.038 135.185,118.371 135.5,114.5C 137.167,114.5 138.833,114.5 140.5,114.5 Z"/></g>
<g><path style="opacity:1" fill="#789dfa" d="M 137.5,117.5 C 137.56,116.957 137.893,116.624 138.5,116.5C 139.484,119.428 139.817,122.428 139.5,125.5C 138.833,122.833 138.167,120.167 137.5,117.5 Z"/></g>
<g><path style="opacity:1" fill="#3268f7" d="M 85.5,124.5 C 85.5,121.167 85.5,117.833 85.5,114.5C 85.4614,113.244 85.9614,112.244 87,111.5C 87.4396,113.076 88.273,114.41 89.5,115.5C 86.8333,118.5 86.8333,121.5 89.5,124.5C 88.1916,125.626 86.8583,125.626 85.5,124.5 Z"/></g>
<g><path style="opacity:1" fill="#c1d4fc" d="M 143.5,114.5 C 145.414,117.684 146.08,121.351 145.5,125.5C 143.586,122.316 142.92,118.649 143.5,114.5 Z"/></g>
<g><path style="opacity:0.996" fill="#9bb5fb" d="M 168.5,114.5 C 169.5,114.5 170.5,114.5 171.5,114.5C 171.5,118.5 171.5,122.5 171.5,126.5C 170.5,126.5 169.5,126.5 168.5,126.5C 168.5,122.5 168.5,118.5 168.5,114.5 Z"/></g>
<g><path style="opacity:0.998" fill="#2c5cf7" d="M 66.5,108.5 C 67.2341,109.708 67.5674,111.041 67.5,112.5C 61.7962,112.146 59.9629,114.813 62,120.5C 62.7096,121.973 63.8762,122.64 65.5,122.5C 65.1667,120.5 64.8333,118.5 64.5,116.5C 65.5,116.5 66.5,116.5 67.5,116.5C 67.6641,119.187 67.4974,121.854 67,124.5C 65.6439,125.38 64.1439,125.714 62.5,125.5C 62.1667,125.5 61.8333,125.5 61.5,125.5C 59.9983,121.658 59.3316,117.658 59.5,113.5C 59.8153,109.2 62.1486,107.533 66.5,108.5 Z"/></g>
<g><path style="opacity:1" fill="#3361f7" d="M 82.5,114.5 C 82.2786,115.735 81.6119,116.735 80.5,117.5C 82.2289,119.851 82.8956,122.518 82.5,125.5C 81.1667,125.5 79.8333,125.5 78.5,125.5C 79.0065,124.141 80.0065,123.141 81.5,122.5C 79.1459,120.754 78.1459,118.421 78.5,115.5C 79.5383,113.481 80.8716,113.147 82.5,114.5 Z"/></g>
<g><path style="opacity:1" fill="#bfcffc" d="M 174.5,113.5 C 176.39,113.297 177.89,113.963 179,115.5C 179.498,118.817 179.665,122.15 179.5,125.5C 177.5,125.5 175.5,125.5 173.5,125.5C 173.014,122.245 174.014,119.578 176.5,117.5C 175.726,116.289 174.893,116.289 174,117.5C 173.421,116.072 173.588,114.738 174.5,113.5 Z"/></g>
<g><path style="opacity:1" fill="#d7e2fd" d="M 132.5,123.5 C 131.082,125.308 129.082,125.975 126.5,125.5C 126.216,123.585 126.549,121.919 127.5,120.5C 128.158,121.398 128.824,122.398 129.5,123.5C 129.387,120.941 129.887,118.274 131,115.5C 131.183,118.365 131.683,121.031 132.5,123.5 Z"/></g>
<g><path style="opacity:1" fill="#acc0fc" d="M 102.5,123.5 C 102.441,125.722 101.275,126.722 99,126.5C 97.6244,126.316 96.7911,125.649 96.5,124.5C 98.7508,125.865 100.751,125.531 102.5,123.5 Z"/></g>
<g><path style="opacity:0.998" fill="#c7d7fc" d="M 113.5,100.5 C 113.833,100.5 114.167,100.5 114.5,100.5C 114.5,113.833 114.5,127.167 114.5,140.5C 114.167,140.5 113.833,140.5 113.5,140.5C 92.8333,140.5 72.1667,140.5 51.5,140.5C 51.5,140.167 51.5,139.833 51.5,139.5C 72.1667,139.5 92.8333,139.5 113.5,139.5C 113.5,126.5 113.5,113.5 113.5,100.5 Z"/></g>
<g><path style="opacity:0.998" fill="#708efa" d="M 19.5,140.5 C 29.8333,140.5 40.1667,140.5 50.5,140.5C 50.8333,140.5 51.1667,140.5 51.5,140.5C 72.1667,140.5 92.8333,140.5 113.5,140.5C 113.5,140.833 113.5,141.167 113.5,141.5C 92.8333,141.5 72.1667,141.5 51.5,141.5C 51.2717,153.859 51.605,166.193 52.5,178.5C 50.4956,173.662 49.4956,168.495 49.5,163C 49.9083,156.153 50.2417,149.32 50.5,142.5C 40.0078,141.833 29.6745,141.167 19.5,140.5 Z"/></g>
<g><path style="opacity:0.008" fill="#6091f7" d="M 113.5,141.5 C 113.5,141.167 113.5,140.833 113.5,140.5C 113.833,140.5 114.167,140.5 114.5,140.5C 142.5,140.5 170.5,140.5 198.5,140.5C 171.005,141.498 143.338,141.831 115.5,141.5C 115.828,152.679 115.495,163.679 114.5,174.5C 114.828,163.321 114.495,152.321 113.5,141.5 Z"/></g>
<g><path style="opacity:0.999" fill="#0555f6" d="M 113.5,141.5 C 114.495,152.321 114.828,163.321 114.5,174.5C 113.844,179.287 111.178,182.454 106.5,184C 90.5,184.667 74.5,184.667 58.5,184C 56.0038,182.669 54.0038,180.836 52.5,178.5C 51.605,166.193 51.2717,153.859 51.5,141.5C 72.1667,141.5 92.8333,141.5 113.5,141.5 Z"/></g>
</svg>
